{
	"patcher" : 	{
		"fileversion" : 1,
		"appversion" : 		{
			"major" : 8,
			"minor" : 6,
			"revision" : 4,
			"architecture" : "x64",
			"modernui" : 1
		}
,
		"classnamespace" : "box",
		"rect" : [ 578.0, 385.0, 578.0, 698.0 ],
		"bglocked" : 0,
		"openinpresentation" : 0,
		"default_fontsize" : 12.0,
		"default_fontface" : 0,
		"default_fontname" : "Arial",
		"gridonopen" : 1,
		"gridsize" : [ 15.0, 15.0 ],
		"gridsnaponopen" : 1,
		"objectsnaponopen" : 1,
		"statusbarvisible" : 2,
		"toolbarvisible" : 1,
		"lefttoolbarpinned" : 0,
		"toptoolbarpinned" : 0,
		"righttoolbarpinned" : 0,
		"bottomtoolbarpinned" : 0,
		"toolbars_unpinned_last_save" : 0,
		"tallnewobj" : 0,
		"boxanimatetime" : 200,
		"enablehscroll" : 1,
		"enablevscroll" : 1,
		"devicewidth" : 0.0,
		"description" : "",
		"digest" : "",
		"tags" : "",
		"style" : "",
		"subpatcher_template" : "",
		"assistshowspatchername" : 0,
		"boxes" : [ 			{
				"box" : 				{
					"id" : "obj-16",
					"maxclass" : "newobj",
					"numinlets" : 1,
					"numoutlets" : 1,
					"outlettype" : [ "multichannelsignal" ],
					"patching_rect" : [ 122.0, 24.0, 102.0, 22.0 ],
					"saved_object_attributes" : 					{
						"attr_comment" : ""
					}
,
					"text" : "mc.in~ @chans 7"
				}

			}
, 			{
				"box" : 				{
					"id" : "obj-14",
					"maxclass" : "newobj",
					"numinlets" : 2,
					"numoutlets" : 1,
					"outlettype" : [ "signal" ],
					"patching_rect" : [ 58.0, 90.0, 83.0, 22.0 ],
					"text" : "mcs.selector~"
				}

			}
, 			{
				"box" : 				{
					"id" : "obj-13",
					"maxclass" : "message",
					"numinlets" : 2,
					"numoutlets" : 1,
					"outlettype" : [ "" ],
					"patching_rect" : [ 383.0, 261.0, 48.0, 22.0 ],
					"text" : "algo $1"
				}

			}
, 			{
				"box" : 				{
					"id" : "obj-162",
					"maxclass" : "newobj",
					"numinlets" : 1,
					"numoutlets" : 1,
					"outlettype" : [ "" ],
					"patcher" : 					{
						"fileversion" : 1,
						"appversion" : 						{
							"major" : 8,
							"minor" : 6,
							"revision" : 4,
							"architecture" : "x64",
							"modernui" : 1
						}
,
						"classnamespace" : "box",
						"rect" : [ 130.0, 185.0, 640.0, 480.0 ],
						"bglocked" : 0,
						"openinpresentation" : 0,
						"default_fontsize" : 12.0,
						"default_fontface" : 0,
						"default_fontname" : "Arial",
						"gridonopen" : 1,
						"gridsize" : [ 15.0, 15.0 ],
						"gridsnaponopen" : 1,
						"objectsnaponopen" : 1,
						"statusbarvisible" : 2,
						"toolbarvisible" : 1,
						"lefttoolbarpinned" : 0,
						"toptoolbarpinned" : 0,
						"righttoolbarpinned" : 0,
						"bottomtoolbarpinned" : 0,
						"toolbars_unpinned_last_save" : 0,
						"tallnewobj" : 0,
						"boxanimatetime" : 200,
						"enablehscroll" : 1,
						"enablevscroll" : 1,
						"devicewidth" : 0.0,
						"description" : "",
						"digest" : "",
						"tags" : "",
						"style" : "",
						"subpatcher_template" : "",
						"assistshowspatchername" : 0,
						"boxes" : [ 							{
								"box" : 								{
									"id" : "obj-11",
									"maxclass" : "newobj",
									"numinlets" : 2,
									"numoutlets" : 1,
									"outlettype" : [ "float" ],
									"patching_rect" : [ 322.0, 223.0, 66.0, 22.0 ],
									"text" : "- 0.785398"
								}

							}
, 							{
								"box" : 								{
									"id" : "obj-10",
									"linecount" : 2,
									"maxclass" : "message",
									"numinlets" : 2,
									"numoutlets" : 1,
									"outlettype" : [ "" ],
									"patching_rect" : [ 406.0, 154.0, 50.0, 35.0 ],
									"text" : "1.570796"
								}

							}
, 							{
								"box" : 								{
									"format" : 6,
									"id" : "obj-7",
									"maxclass" : "flonum",
									"numinlets" : 1,
									"numoutlets" : 2,
									"outlettype" : [ "", "bang" ],
									"parameter_enable" : 0,
									"patching_rect" : [ 437.0, 96.0, 50.0, 22.0 ]
								}

							}
, 							{
								"box" : 								{
									"id" : "obj-5",
									"maxclass" : "newobj",
									"numinlets" : 2,
									"numoutlets" : 1,
									"outlettype" : [ "float" ],
									"patching_rect" : [ 437.0, 124.0, 67.0, 22.0 ],
									"text" : "* 3.141593"
								}

							}
, 							{
								"box" : 								{
									"id" : "obj-4",
									"maxclass" : "newobj",
									"numinlets" : 2,
									"numoutlets" : 1,
									"outlettype" : [ "float" ],
									"patching_rect" : [ 251.0, 223.0, 66.0, 22.0 ],
									"text" : "- 0.785398"
								}

							}
, 							{
								"box" : 								{
									"comment" : "",
									"id" : "obj-3",
									"index" : 1,
									"maxclass" : "inlet",
									"numinlets" : 0,
									"numoutlets" : 1,
									"outlettype" : [ "" ],
									"patching_rect" : [ 163.0, 86.0, 30.0, 30.0 ]
								}

							}
, 							{
								"box" : 								{
									"comment" : "",
									"id" : "obj-1",
									"index" : 1,
									"maxclass" : "outlet",
									"numinlets" : 1,
									"numoutlets" : 0,
									"patching_rect" : [ 163.0, 411.0, 30.0, 30.0 ]
								}

							}
, 							{
								"box" : 								{
									"id" : "obj-148",
									"linecount" : 2,
									"maxclass" : "newobj",
									"numinlets" : 1,
									"numoutlets" : 1,
									"outlettype" : [ "" ],
									"patching_rect" : [ 163.0, 140.0, 93.0, 35.0 ],
									"text" : "vexpr $f1 * -1 @scalarmode 1"
								}

							}
, 							{
								"box" : 								{
									"id" : "obj-138",
									"maxclass" : "message",
									"numinlets" : 2,
									"numoutlets" : 1,
									"outlettype" : [ "" ],
									"patching_rect" : [ 163.0, 345.0, 39.0, 22.0 ],
									"text" : "$2 $1"
								}

							}
, 							{
								"box" : 								{
									"id" : "obj-22",
									"maxclass" : "newobj",
									"numinlets" : 2,
									"numoutlets" : 1,
									"outlettype" : [ "" ],
									"patching_rect" : [ 163.0, 318.0, 51.0, 22.0 ],
									"text" : "pack f f"
								}

							}
, 							{
								"box" : 								{
									"id" : "obj-15",
									"linecount" : 2,
									"maxclass" : "newobj",
									"numinlets" : 1,
									"numoutlets" : 1,
									"outlettype" : [ "" ],
									"patching_rect" : [ 251.0, 255.0, 129.0, 35.0 ],
									"text" : "expr (-$f1 / 3.14159) * 0.5 + 0.5"
								}

							}
, 							{
								"box" : 								{
									"id" : "obj-139",
									"maxclass" : "newobj",
									"numinlets" : 2,
									"numoutlets" : 2,
									"outlettype" : [ "float", "float" ],
									"patching_rect" : [ 163.0, 181.0, 51.0, 22.0 ],
									"text" : "cartopol"
								}

							}
 ],
						"lines" : [ 							{
								"patchline" : 								{
									"destination" : [ "obj-1", 0 ],
									"source" : [ "obj-138", 0 ]
								}

							}
, 							{
								"patchline" : 								{
									"destination" : [ "obj-15", 0 ],
									"source" : [ "obj-139", 1 ]
								}

							}
, 							{
								"patchline" : 								{
									"destination" : [ "obj-22", 0 ],
									"source" : [ "obj-139", 0 ]
								}

							}
, 							{
								"patchline" : 								{
									"destination" : [ "obj-139", 0 ],
									"source" : [ "obj-148", 0 ]
								}

							}
, 							{
								"patchline" : 								{
									"destination" : [ "obj-22", 1 ],
									"source" : [ "obj-15", 0 ]
								}

							}
, 							{
								"patchline" : 								{
									"destination" : [ "obj-138", 0 ],
									"source" : [ "obj-22", 0 ]
								}

							}
, 							{
								"patchline" : 								{
									"destination" : [ "obj-148", 0 ],
									"source" : [ "obj-3", 0 ]
								}

							}
, 							{
								"patchline" : 								{
									"destination" : [ "obj-15", 0 ],
									"source" : [ "obj-4", 0 ]
								}

							}
, 							{
								"patchline" : 								{
									"destination" : [ "obj-10", 1 ],
									"source" : [ "obj-5", 0 ]
								}

							}
, 							{
								"patchline" : 								{
									"destination" : [ "obj-5", 0 ],
									"source" : [ "obj-7", 0 ]
								}

							}
 ]
					}
,
					"patching_rect" : [ 249.0, 209.0, 59.0, 22.0 ],
					"saved_object_attributes" : 					{
						"description" : "",
						"digest" : "",
						"globalpatchername" : "",
						"tags" : ""
					}
,
					"text" : "p cartoad"
				}

			}
, 			{
				"box" : 				{
					"id" : "obj-5",
					"maxclass" : "newobj",
					"numinlets" : 2,
					"numoutlets" : 2,
					"outlettype" : [ "", "" ],
					"patching_rect" : [ 178.0, 142.0, 38.0, 22.0 ],
					"text" : "zl reg"
				}

			}
, 			{
				"box" : 				{
					"id" : "obj-1",
					"maxclass" : "newobj",
					"numinlets" : 2,
					"numoutlets" : 1,
					"outlettype" : [ "bang" ],
					"patching_rect" : [ 178.0, 60.0, 106.0, 22.0 ],
					"text" : "metro 5 @active 1"
				}

			}
, 			{
				"box" : 				{
					"id" : "obj-19",
					"maxclass" : "newobj",
					"numinlets" : 2,
					"numoutlets" : 1,
					"outlettype" : [ "signal" ],
					"patching_rect" : [ 385.0, 440.0, 29.5, 22.0 ],
					"text" : "-~"
				}

			}
, 			{
				"box" : 				{
					"id" : "obj-17",
					"maxclass" : "newobj",
					"numinlets" : 1,
					"numoutlets" : 1,
					"outlettype" : [ "signal" ],
					"patching_rect" : [ 385.0, 385.0, 41.0, 22.0 ],
					"text" : "sig~ 1"
				}

			}
, 			{
				"box" : 				{
					"id" : "obj-15",
					"maxclass" : "newobj",
					"numinlets" : 2,
					"numoutlets" : 1,
					"outlettype" : [ "signal" ],
					"patching_rect" : [ 385.0, 467.0, 30.0, 22.0 ],
					"text" : "*~ 1"
				}

			}
, 			{
				"box" : 				{
					"id" : "obj-12",
					"maxclass" : "newobj",
					"numinlets" : 2,
					"numoutlets" : 1,
					"outlettype" : [ "signal" ],
					"patching_rect" : [ 282.0, 467.0, 30.0, 22.0 ],
					"text" : "*~ 1"
				}

			}
, 			{
				"box" : 				{
					"id" : "obj-11",
					"maxclass" : "newobj",
					"numinlets" : 2,
					"numoutlets" : 1,
					"outlettype" : [ "multichannelsignal" ],
					"patching_rect" : [ 178.0, 547.0, 148.0, 22.0 ],
					"text" : "mc.combine~ 2 @chans 8"
				}

			}
, 			{
				"box" : 				{
					"id" : "obj-10",
					"maxclass" : "newobj",
					"numinlets" : 2,
					"numoutlets" : 1,
					"outlettype" : [ "multichannelsignal" ],
					"patching_rect" : [ 307.0, 511.0, 97.0, 22.0 ],
					"text" : "mc.*~ @chans 4"
				}

			}
, 			{
				"box" : 				{
					"id" : "obj-9",
					"maxclass" : "newobj",
					"numinlets" : 2,
					"numoutlets" : 1,
					"outlettype" : [ "multichannelsignal" ],
					"patching_rect" : [ 178.0, 511.0, 122.999999999999943, 22.0 ],
					"text" : "mc.*~ @chans 4"
				}

			}
, 			{
				"box" : 				{
					"id" : "obj-8",
					"maxclass" : "message",
					"numinlets" : 2,
					"numoutlets" : 1,
					"outlettype" : [ "" ],
					"patching_rect" : [ 178.0, 209.0, 61.0, 22.0 ],
					"text" : "x $1, y $2"
				}

			}
, 			{
				"box" : 				{
					"id" : "obj-4",
					"maxclass" : "newobj",
					"numinlets" : 1,
					"numoutlets" : 2,
					"outlettype" : [ "", "" ],
					"patching_rect" : [ 178.0, 172.0, 29.5, 22.0 ],
					"text" : "t l l"
				}

			}
, 			{
				"box" : 				{
					"id" : "obj-2",
					"library_path0" : "/Users/josephlarralde/Documents/Max 8/Packages/faustgen/externals/msp/faustgen~.mxo/Contents/Resources/",
					"machinecode" : "z/rt/gwAAAEAAAAAAQAAAAUAAAB4AQAAACAAAAAAAAAZAAAA6AAAAAAAAAAAAAAAAAAAAAAAAAAAAAAAAAAAAK4JAAAAAAAAmAEAAAAAAACuCQAAAAAAAAcAAAAHAAAAAgAAAAAAAABfX3RleHQAAAAAAAAAAAAAX19URVhUAAAAAAAAAAAAAAAAAAAAAAAApAEAAAAAAACYAQAAAgAAAEgLAAAIAAAAAAQAgAAAAAAAAAAAAAAAAF9fY29uc3QAAAAAAAAAAABfX1RFWFQAAAAAAAAAAAAAsAEAAAAAAAD+BwAAAAAAAEgDAAAEAAAAAAAAAAAAAAAAAAAAAAAAAAAAAAAAAAAAMgAAABgAAAABAAAAAAANAAAAAAAAAAAALgAAABAAAACICwAAGAAAAAIAAAAYAAAAoAsAAA0AAABwDAAAmAgAAAsAAABQAAAAAAAAAAMAAAADAAAABwAAAAoAAAADAAAAAAAAAAAAAAAAAAAAAAAAAAAAAAAAAAAAAAAAAAAAAAAAAAAAAAAAAAAAAAAAAAAAwANf1h9AAvgfwAH4wANf1gEAALkgAGIeARBuHgBoYR4IAM7S6CDo8gEBZ54AeGEeCKOF0oiIqvJoP8TyKAPo8gEBZ54gGGAeAEAA/MADX9bAA1/WwANf1gAAAJAAAED5wANf1usrum3pIwFt+F8CqfZXA6n0TwSp/XsFqfQDAarzAwCqVQBA+XZcQKkAwED8AAhgHgFAQfwgAEEfAMBhHgEQfh4AKGEeAeQALwBoYR7o5wGySDOT8ij35/IKAWeeCxBuHgCsSh8JaGEeCEBA/ChRhdKoOK7yCH/c8ugD6PIAAWeeaIuD0sgltPKoVMjyqALo8gEBZ54gBUAfCAAAkAgBQPkAAT/WAAhoHggAAJAIAUD5AAE/1ghAYB4IAACQCAFA+SBBYB5BQWAeAAE/1p8GAHGrAgBUIcFhHgIQbB4CCEIfAylrHmBCQvzoAxQqYxljHqSGQPyEgGEfBAlkHoQIYx6FKGAehChkHgAoZB7FhgD84oYA/AgFAPHB/v9UYEIC/GDCAfz9e0Wp9E9EqfZXQ6n4X0Kp6SNBbesrxmzAA1/WAAAAAAAAAAAAAAAAeyJuYW1lIjogImZhdXN0Z2VuLTExNSIsImZpbGVuYW1lIjogImZhdXN0Z2VuLTExNSIsInZlcnNpb24iOiAiMi43NC42IiwiY29tcGlsZV9vcHRpb25zIjogIi1sYW5nIGxsdm0gMTUuMC43IC1jdCAxIC1lcyAxIC1tY2QgMTYgLW1kZCAxMDI0IC1tZHkgMzMgLWRvdWJsZSAtZnR6IDAiLCJsaWJyYXJ5X2xpc3QiOiBbIi9Vc2Vycy9qb3NlcGhsYXJyYWxkZS9Eb2N1bWVudHMvTWF4IDgvUGFja2FnZXMvZmF1c3RnZW4vZXh0ZXJuYWxzL21zcC9mYXVzdGdlbn4ubXhvL0NvbnRlbnRzL1Jlc291cmNlcy9zdGRmYXVzdC5saWIiLCIvVXNlcnMvam9zZXBobGFycmFsZGUvRG9jdW1lbnRzL01heCA4L1BhY2thZ2VzL2ZhdXN0Z2VuL2V4dGVybmFscy9tc3AvZmF1c3RnZW5+Lm14by9Db250ZW50cy9SZXNvdXJjZXMvdmFlZmZlY3RzLmxpYiIsIi9Vc2Vycy9qb3NlcGhsYXJyYWxkZS9Eb2N1bWVudHMvTWF4IDgvUGFja2FnZXMvZmF1c3RnZW4vZXh0ZXJuYWxzL21zcC9mYXVzdGdlbn4ubXhvL0NvbnRlbnRzL1Jlc291cmNlcy9tYXRocy5saWIiLCIvVXNlcnMvam9zZXBobGFycmFsZGUvRG9jdW1lbnRzL01heCA4L1BhY2thZ2VzL2ZhdXN0Z2VuL2V4dGVybmFscy9tc3AvZmF1c3RnZW5+Lm14by9Db250ZW50cy9SZXNvdXJjZXMvcGxhdGZvcm0ubGliIl0sImluY2x1ZGVfcGF0aG5hbWVzIjogWyIvVXNlcnMvam9zZXBobGFycmFsZGUvRG9jdW1lbnRzL01heCA4L1BhY2thZ2VzL2ZhdXN0Z2VuL2V4dGVybmFscy9tc3AvZmF1c3RnZW5+Lm14by9Db250ZW50cy9SZXNvdXJjZXMiLCIvc2hhcmUvZmF1c3QiLCIvdXNyL2xvY2FsL3NoYXJlL2ZhdXN0IiwiL3Vzci9zaGFyZS9mYXVzdCIsIi4iXSwic2l6ZSI6IDQ0LCJpbnB1dHMiOiAxLCJvdXRwdXRzIjogMiwic3JfaW5kZXgiOiAwLCJtZXRhIjogWyB7ICJjb21waWxlX29wdGlvbnMiOiAiLWxhbmcgbGx2bSAxNS4wLjcgLWN0IDEgLWVzIDEgLW1jZCAxNiAtbWRkIDEwMjQgLW1keSAzMyAtZG91YmxlIC1mdHogMCIgfSx7ICJmaWxlbmFtZSI6ICJmYXVzdGdlbi0xMTUiIH0seyAibWF0aHMubGliL2F1dGhvciI6ICJHUkFNRSIgfSx7ICJtYXRocy5saWIvY29weXJpZ2h0IjogIkdSQU1FIiB9LHsgIm1hdGhzLmxpYi9saWNlbnNlIjogIkxHUEwgd2l0aCBleGNlcHRpb24iIH0seyAibWF0aHMubGliL25hbWUiOiAiRmF1c3QgTWF0aCBMaWJyYXJ5IiB9LHsgIm1hdGhzLmxpYi92ZXJzaW9uIjogIjIuOC4wIiB9LHsgIm5hbWUiOiAiZmF1c3RnZW4tMTE1IiB9LHsgInBsYXRmb3JtLmxpYi9uYW1lIjogIkdlbmVyaWMgUGxhdGZvcm0gTGlicmFyeSIgfSx7ICJwbGF0Zm9ybS5saWIvdmVyc2lvbiI6ICIxLjMuMCIgfSx7ICJ2YWVmZmVjdHMubGliL25hbWUiOiAiRmF1c3QgVmlydHVhbCBBbmFsb2cgRmlsdGVyIEVmZmVjdCBMaWJyYXJ5IiB9LHsgInZhZWZmZWN0cy5saWIvc2FsbGVuS2V5T25lUG9sZTphdXRob3IiOiAiRXJpYyBUYXJyIiB9LHsgInZhZWZmZWN0cy5saWIvc2FsbGVuS2V5T25lUG9sZTpsaWNlbnNlIjogIk1JVC1zdHlsZSBTVEstNC4zIGxpY2Vuc2UiIH0seyAidmFlZmZlY3RzLmxpYi9zYWxsZW5LZXlPbmVQb2xlTFBGOmF1dGhvciI6ICJFcmljIFRhcnIiIH0seyAidmFlZmZlY3RzLmxpYi9zYWxsZW5LZXlPbmVQb2xlTFBGOmxpY2Vuc2UiOiAiTUlULXN0eWxlIFNUSy00LjMgbGljZW5zZSIgfSx7ICJ2YWVmZmVjdHMubGliL3ZlcnNpb24iOiAiMS4yLjEiIH1dLCJ1aSI6IFsgeyJ0eXBlIjogInZncm91cCIsImxhYmVsIjogImZhdXN0Z2VuLTExNSIsIml0ZW1zIjogWyB7InR5cGUiOiAiaHNsaWRlciIsImxhYmVsIjogIngiLCJzaG9ydG5hbWUiOiAieCIsImFkZHJlc3MiOiAiL2ZhdXN0Z2VuLTExNS94IiwiaW5kZXgiOiAxMiwiaW5pdCI6IDAsIm1pbiI6IC0xMSwibWF4IjogMTEsInN0ZXAiOiAwLjAxfSx7InR5cGUiOiAiaHNsaWRlciIsImxhYmVsIjogInkiLCJzaG9ydG5hbWUiOiAieSIsImFkZHJlc3MiOiAiL2ZhdXN0Z2VuLTExNS95IiwiaW5kZXgiOiAyMCwiaW5pdCI6IDAsIm1pbiI6IC0xMSwibWF4IjogMTEsInN0ZXAiOiAwLjAxfV19XX0AAAAgAQAACwAAbBwBAAALAABdEAEAAAwAAGwMAQAADAAAXQABAAAKAABs/AAAAAoAAF1cAAAAAQAAbFgAAAABAABdCAJYXAgCnAKgAggCjAKQAggC/AGAAgAAiwgAAA4BAAAAAAAAAAAAAAEAAAAOAgAAsAEAAAAAAACFCAAADgIAALABAAAAAAAAXQgAAA8BAABQAAAAAAAAABMIAAAPAQAAAAAAAAAAAABPCAAADwEAAGQAAAAAAAAABQgAAA8BAABUAAAAAAAAAGwIAAAPAQAAWAAAAAAAAAA7CAAADwEAAAQAAAAAAAAAIwgAAA8BAAAQAAAAAAAAAH8IAAABAAAAAAAAAAAAAAAACAAAAQAAAAAAAAAAAAAAeggAAAEAAAAAAAAAAAAAAABfeyJuYW1lIjogImZhdXN0Z2VuLTExNSIsImZpbGVuYW1lIjogImZhdXN0Z2VuLTExNSIsInZlcnNpb24iOiAiMi43NC42IiwiY29tcGlsZV9vcHRpb25zIjogIi1sYW5nIGxsdm0gMTUuMC43IC1jdCAxIC1lcyAxIC1tY2QgMTYgLW1kZCAxMDI0IC1tZHkgMzMgLWRvdWJsZSAtZnR6IDAiLCJsaWJyYXJ5X2xpc3QiOiBbIi9Vc2Vycy9qb3NlcGhsYXJyYWxkZS9Eb2N1bWVudHMvTWF4IDgvUGFja2FnZXMvZmF1c3RnZW4vZXh0ZXJuYWxzL21zcC9mYXVzdGdlbn4ubXhvL0NvbnRlbnRzL1Jlc291cmNlcy9zdGRmYXVzdC5saWIiLCIvVXNlcnMvam9zZXBobGFycmFsZGUvRG9jdW1lbnRzL01heCA4L1BhY2thZ2VzL2ZhdXN0Z2VuL2V4dGVybmFscy9tc3AvZmF1c3RnZW5+Lm14by9Db250ZW50cy9SZXNvdXJjZXMvdmFlZmZlY3RzLmxpYiIsIi9Vc2Vycy9qb3NlcGhsYXJyYWxkZS9Eb2N1bWVudHMvTWF4IDgvUGFja2FnZXMvZmF1c3RnZW4vZXh0ZXJuYWxzL21zcC9mYXVzdGdlbn4ubXhvL0NvbnRlbnRzL1Jlc291cmNlcy9tYXRocy5saWIiLCIvVXNlcnMvam9zZXBobGFycmFsZGUvRG9jdW1lbnRzL01heCA4L1BhY2thZ2VzL2ZhdXN0Z2VuL2V4dGVybmFscy9tc3AvZmF1c3RnZW5+Lm14by9Db250ZW50cy9SZXNvdXJjZXMvcGxhdGZvcm0ubGliIl0sImluY2x1ZGVfcGF0aG5hbWVzIjogWyIvVXNlcnMvam9zZXBobGFycmFsZGUvRG9jdW1lbnRzL01heCA4L1BhY2thZ2VzL2ZhdXN0Z2VuL2V4dGVybmFscy9tc3AvZmF1c3RnZW5+Lm14by9Db250ZW50cy9SZXNvdXJjZXMiLCIvc2hhcmUvZmF1c3QiLCIvdXNyL2xvY2FsL3NoYXJlL2ZhdXN0IiwiL3Vzci9zaGFyZS9mYXVzdCIsIi4iXSwic2l6ZSI6IDQ0LCJpbnB1dHMiOiAxLCJvdXRwdXRzIjogMiwic3JfaW5kZXgiOiAwLCJtZXRhIjogWyB7ICJjb21waWxlX29wdGlvbnMiOiAiLWxhbmcgbGx2bSAxNS4wLjcgLWN0IDEgLWVzIDEgLW1jZCAxNiAtbWRkIDEwMjQgLW1keSAzMyAtZG91YmxlIC1mdHogMCIgfSx7ICJmaWxlbmFtZSI6ICJmYXVzdGdlbi0xMTUiIH0seyAibWF0aHMubGliL2F1dGhvciI6ICJHUkFNRSIgfSx7ICJtYXRocy5saWIvY29weXJpZ2h0IjogIkdSQU1FIiB9LHsgIm1hdGhzLmxpYi9saWNlbnNlIjogIkxHUEwgd2l0aCBleGNlcHRpb24iIH0seyAibWF0aHMubGliL25hbWUiOiAiRmF1c3QgTWF0aCBMaWJyYXJ5IiB9LHsgIm1hdGhzLmxpYi92ZXJzaW9uIjogIjIuOC4wIiB9LHsgIm5hbWUiOiAiZmF1c3RnZW4tMTE1IiB9LHsgInBsYXRmb3JtLmxpYi9uYW1lIjogIkdlbmVyaWMgUGxhdGZvcm0gTGlicmFyeSIgfSx7ICJwbGF0Zm9ybS5saWIvdmVyc2lvbiI6ICIxLjMuMCIgfSx7ICJ2YWVmZmVjdHMubGliL25hbWUiOiAiRmF1c3QgVmlydHVhbCBBbmFsb2cgRmlsdGVyIEVmZmVjdCBMaWJyYXJ5IiB9LHsgInZhZWZmZWN0cy5saWIvc2FsbGVuS2V5T25lUG9sZTphdXRob3IiOiAiRXJpYyBUYXJyIiB9LHsgInZhZWZmZWN0cy5saWIvc2FsbGVuS2V5T25lUG9sZTpsaWNlbnNlIjogIk1JVC1zdHlsZSBTVEstNC4zIGxpY2Vuc2UiIH0seyAidmFlZmZlY3RzLmxpYi9zYWxsZW5LZXlPbmVQb2xlTFBGOmF1dGhvciI6ICJFcmljIFRhcnIiIH0seyAidmFlZmZlY3RzLmxpYi9zYWxsZW5LZXlPbmVQb2xlTFBGOmxpY2Vuc2UiOiAiTUlULXN0eWxlIFNUSy00LjMgbGljZW5zZSIgfSx7ICJ2YWVmZmVjdHMubGliL3ZlcnNpb24iOiAiMS4yLjEiIH1dLCJ1aSI6IFsgeyJ0eXBlIjogInZncm91cCIsImxhYmVsIjogImZhdXN0Z2VuLTExNSIsIml0ZW1zIjogWyB7InR5cGUiOiAiaHNsaWRlciIsImxhYmVsIjogIngiLCJzaG9ydG5hbWUiOiAieCIsImFkZHJlc3MiOiAiL2ZhdXN0Z2VuLTExNS94IiwiaW5kZXgiOiAxMiwiaW5pdCI6IDAsIm1pbiI6IC0xMSwibWF4IjogMTEsInN0ZXAiOiAwLjAxfSx7InR5cGUiOiAiaHNsaWRlciIsImxhYmVsIjogInkiLCJzaG9ydG5hbWUiOiAieSIsImFkZHJlc3MiOiAiL2ZhdXN0Z2VuLTExNS95IiwiaW5kZXgiOiAyMCwiaW5pdCI6IDAsIm1pbiI6IC0xMSwibWF4IjogMTEsInN0ZXAiOiAwLjAxfV19XX0AX3BvdwBfZGVzdHJveW15ZHNwAF9jbGFzc0luaXRteWRzcABfaW5zdGFuY2VDb25zdGFudHNteWRzcABfaW5zdGFuY2VDbGVhcm15ZHNwAF9jb21wdXRlbXlkc3AAX2FsbG9jYXRlbXlkc3AAX2dldEpTT05teWRzcABfdGFuAF9leHAyAGx0bXAxAGx0bXAwAAAAAAAAAAA=",
					"machinecode_size" : 7180,
					"maxclass" : "newobj",
					"numinlets" : 1,
					"numoutlets" : 4,
					"outlettype" : [ "signal", "signal", "", "" ],
					"patching_rect" : [ 178.0, 303.0, 62.0, 22.0 ],
					"sample_format" : 1,
					"serial_number" : "WCYDXQXPNQ64 bits",
					"sourcecode" : "import(\"stdfaust.lib\");\n\r\nx = hslider(\"x\", 0, -11, 11, 0.01);\r\ny = hslider(\"y\", 0, -11, 11, 0.01);\r\n\r\nchain = *(gain) : ve.sallenKeyOnePoleLPF(freq), dry\r\n\r\nwith {\r\n\tdry = 0.5 + 0.5 * pow(presence, 0.1);\r\n}\r\nwith {\r\n\tgain = sqrt(presence);\r\n\tfreq = minfreq + presence * (1 - minfreq);\r\n}\r\nwith {\r\n\tminfreq = 0.2;\r\n\tpresence = max(1 - max(d - 1, 0) / 10, 0);\r\n}\r\nwith {\r\n\td = sqrt(x * x + y * y);\r\n};\r\n\r\nprocess = chain;\r\n",
					"sourcecode_size" : 421,
					"text" : "faustgen~",
					"varname" : "faustgen-5390617712",
					"version" : "1.71"
				}

			}
, 			{
				"box" : 				{
					"id" : "obj-42",
					"maxclass" : "newobj",
					"numinlets" : 3,
					"numoutlets" : 4,
					"outlettype" : [ "signal", "signal", "signal", "signal" ],
					"patcher" : 					{
						"fileversion" : 1,
						"appversion" : 						{
							"major" : 8,
							"minor" : 6,
							"revision" : 4,
							"architecture" : "x64",
							"modernui" : 1
						}
,
						"classnamespace" : "box",
						"rect" : [ 59.0, 119.0, 686.0, 499.0 ],
						"bglocked" : 0,
						"openinpresentation" : 0,
						"default_fontsize" : 12.0,
						"default_fontface" : 0,
						"default_fontname" : "Arial",
						"gridonopen" : 1,
						"gridsize" : [ 15.0, 15.0 ],
						"gridsnaponopen" : 1,
						"objectsnaponopen" : 1,
						"statusbarvisible" : 2,
						"toolbarvisible" : 1,
						"lefttoolbarpinned" : 0,
						"toptoolbarpinned" : 0,
						"righttoolbarpinned" : 0,
						"bottomtoolbarpinned" : 0,
						"toolbars_unpinned_last_save" : 0,
						"tallnewobj" : 0,
						"boxanimatetime" : 200,
						"enablehscroll" : 1,
						"enablevscroll" : 1,
						"devicewidth" : 0.0,
						"description" : "",
						"digest" : "",
						"tags" : "",
						"style" : "",
						"subpatcher_template" : "",
						"assistshowspatchername" : 0,
						"boxes" : [ 							{
								"box" : 								{
									"comment" : "",
									"id" : "obj-7",
									"index" : 3,
									"maxclass" : "inlet",
									"numinlets" : 0,
									"numoutlets" : 1,
									"outlettype" : [ "" ],
									"patching_rect" : [ 572.0, 29.0, 30.0, 30.0 ]
								}

							}
, 							{
								"box" : 								{
									"comment" : "",
									"id" : "obj-6",
									"index" : 2,
									"maxclass" : "inlet",
									"numinlets" : 0,
									"numoutlets" : 1,
									"outlettype" : [ "" ],
									"patching_rect" : [ 250.0, 23.0, 30.0, 30.0 ]
								}

							}
, 							{
								"box" : 								{
									"comment" : "",
									"id" : "obj-5",
									"index" : 4,
									"maxclass" : "outlet",
									"numinlets" : 1,
									"numoutlets" : 0,
									"patching_rect" : [ 302.75, 426.0, 30.0, 30.0 ]
								}

							}
, 							{
								"box" : 								{
									"comment" : "",
									"id" : "obj-4",
									"index" : 3,
									"maxclass" : "outlet",
									"numinlets" : 1,
									"numoutlets" : 0,
									"patching_rect" : [ 258.0, 426.0, 30.0, 30.0 ]
								}

							}
, 							{
								"box" : 								{
									"comment" : "",
									"id" : "obj-3",
									"index" : 2,
									"maxclass" : "outlet",
									"numinlets" : 1,
									"numoutlets" : 0,
									"patching_rect" : [ 212.75, 426.0, 30.0, 30.0 ]
								}

							}
, 							{
								"box" : 								{
									"comment" : "",
									"id" : "obj-2",
									"index" : 1,
									"maxclass" : "outlet",
									"numinlets" : 1,
									"numoutlets" : 0,
									"patching_rect" : [ 168.0, 426.0, 30.0, 30.0 ]
								}

							}
, 							{
								"box" : 								{
									"comment" : "",
									"id" : "obj-1",
									"index" : 1,
									"maxclass" : "inlet",
									"numinlets" : 0,
									"numoutlets" : 1,
									"outlettype" : [ "signal" ],
									"patching_rect" : [ 89.0, 29.0, 30.0, 30.0 ]
								}

							}
, 							{
								"box" : 								{
									"id" : "obj-28",
									"maxclass" : "message",
									"numinlets" : 2,
									"numoutlets" : 1,
									"outlettype" : [ "" ],
									"patching_rect" : [ 317.0, 235.0, 32.0, 22.0 ],
									"text" : "$1 5"
								}

							}
, 							{
								"box" : 								{
									"id" : "obj-29",
									"maxclass" : "newobj",
									"numinlets" : 2,
									"numoutlets" : 2,
									"outlettype" : [ "signal", "bang" ],
									"patching_rect" : [ 317.0, 263.0, 34.0, 22.0 ],
									"text" : "line~"
								}

							}
, 							{
								"box" : 								{
									"id" : "obj-30",
									"maxclass" : "newobj",
									"numinlets" : 2,
									"numoutlets" : 1,
									"outlettype" : [ "signal" ],
									"patching_rect" : [ 168.0, 383.0, 29.5, 22.0 ],
									"text" : "*~"
								}

							}
, 							{
								"box" : 								{
									"id" : "obj-33",
									"maxclass" : "message",
									"numinlets" : 2,
									"numoutlets" : 1,
									"outlettype" : [ "" ],
									"patching_rect" : [ 353.0, 235.0, 32.0, 22.0 ],
									"text" : "$1 5"
								}

							}
, 							{
								"box" : 								{
									"id" : "obj-34",
									"maxclass" : "newobj",
									"numinlets" : 2,
									"numoutlets" : 2,
									"outlettype" : [ "signal", "bang" ],
									"patching_rect" : [ 353.0, 263.0, 34.0, 22.0 ],
									"text" : "line~"
								}

							}
, 							{
								"box" : 								{
									"id" : "obj-37",
									"maxclass" : "newobj",
									"numinlets" : 2,
									"numoutlets" : 1,
									"outlettype" : [ "signal" ],
									"patching_rect" : [ 213.0, 383.0, 29.5, 22.0 ],
									"text" : "*~"
								}

							}
, 							{
								"box" : 								{
									"id" : "obj-25",
									"maxclass" : "message",
									"numinlets" : 2,
									"numoutlets" : 1,
									"outlettype" : [ "" ],
									"patching_rect" : [ 389.0, 235.0, 32.0, 22.0 ],
									"text" : "$1 5"
								}

							}
, 							{
								"box" : 								{
									"id" : "obj-26",
									"maxclass" : "newobj",
									"numinlets" : 2,
									"numoutlets" : 2,
									"outlettype" : [ "signal", "bang" ],
									"patching_rect" : [ 389.0, 263.0, 34.0, 22.0 ],
									"text" : "line~"
								}

							}
, 							{
								"box" : 								{
									"id" : "obj-27",
									"maxclass" : "newobj",
									"numinlets" : 2,
									"numoutlets" : 1,
									"outlettype" : [ "signal" ],
									"patching_rect" : [ 258.0, 383.0, 29.5, 22.0 ],
									"text" : "*~"
								}

							}
, 							{
								"box" : 								{
									"id" : "obj-23",
									"maxclass" : "message",
									"numinlets" : 2,
									"numoutlets" : 1,
									"outlettype" : [ "" ],
									"patching_rect" : [ 425.0, 235.0, 32.0, 22.0 ],
									"text" : "$1 5"
								}

							}
, 							{
								"box" : 								{
									"id" : "obj-21",
									"maxclass" : "newobj",
									"numinlets" : 2,
									"numoutlets" : 2,
									"outlettype" : [ "signal", "bang" ],
									"patching_rect" : [ 425.0, 263.0, 34.0, 22.0 ],
									"text" : "line~"
								}

							}
, 							{
								"box" : 								{
									"id" : "obj-22",
									"maxclass" : "newobj",
									"numinlets" : 2,
									"numoutlets" : 1,
									"outlettype" : [ "signal" ],
									"patching_rect" : [ 303.0, 383.0, 29.5, 22.0 ],
									"text" : "*~"
								}

							}
, 							{
								"box" : 								{
									"id" : "obj-68",
									"maxclass" : "newobj",
									"numinlets" : 4,
									"numoutlets" : 1,
									"outlettype" : [ "" ],
									"patching_rect" : [ 482.0, 235.0, 61.0, 22.0 ],
									"text" : "pack f f f f"
								}

							}
, 							{
								"box" : 								{
									"id" : "obj-63",
									"maxclass" : "newobj",
									"numinlets" : 2,
									"numoutlets" : 2,
									"outlettype" : [ "", "" ],
									"patching_rect" : [ 524.0, 123.0, 67.0, 22.0 ],
									"text" : "zl stream 5"
								}

							}
, 							{
								"box" : 								{
									"id" : "obj-67",
									"maxclass" : "newobj",
									"numinlets" : 1,
									"numoutlets" : 2,
									"outlettype" : [ "float", "int" ],
									"patching_rect" : [ 524.0, 152.0, 39.0, 22.0 ],
									"text" : "mean"
								}

							}
, 							{
								"box" : 								{
									"id" : "obj-58",
									"maxclass" : "newobj",
									"numinlets" : 2,
									"numoutlets" : 2,
									"outlettype" : [ "", "" ],
									"patching_rect" : [ 455.0, 123.0, 67.0, 22.0 ],
									"text" : "zl stream 5"
								}

							}
, 							{
								"box" : 								{
									"id" : "obj-59",
									"maxclass" : "newobj",
									"numinlets" : 1,
									"numoutlets" : 2,
									"outlettype" : [ "float", "int" ],
									"patching_rect" : [ 455.0, 152.0, 39.0, 22.0 ],
									"text" : "mean"
								}

							}
, 							{
								"box" : 								{
									"id" : "obj-45",
									"maxclass" : "newobj",
									"numinlets" : 2,
									"numoutlets" : 2,
									"outlettype" : [ "", "" ],
									"patching_rect" : [ 386.0, 123.0, 67.0, 22.0 ],
									"text" : "zl stream 5"
								}

							}
, 							{
								"box" : 								{
									"id" : "obj-57",
									"maxclass" : "newobj",
									"numinlets" : 1,
									"numoutlets" : 2,
									"outlettype" : [ "float", "int" ],
									"patching_rect" : [ 386.0, 152.0, 39.0, 22.0 ],
									"text" : "mean"
								}

							}
, 							{
								"box" : 								{
									"id" : "obj-44",
									"maxclass" : "newobj",
									"numinlets" : 2,
									"numoutlets" : 2,
									"outlettype" : [ "", "" ],
									"patching_rect" : [ 317.0, 123.0, 67.0, 22.0 ],
									"text" : "zl stream 5"
								}

							}
, 							{
								"box" : 								{
									"id" : "obj-43",
									"maxclass" : "newobj",
									"numinlets" : 1,
									"numoutlets" : 2,
									"outlettype" : [ "float", "int" ],
									"patching_rect" : [ 317.0, 152.0, 39.0, 22.0 ],
									"text" : "mean"
								}

							}
, 							{
								"box" : 								{
									"id" : "obj-40",
									"maxclass" : "newobj",
									"numinlets" : 1,
									"numoutlets" : 4,
									"outlettype" : [ "float", "float", "float", "float" ],
									"patching_rect" : [ 250.0, 59.0, 124.0, 22.0 ],
									"text" : "unpack f f f f"
								}

							}
 ],
						"lines" : [ 							{
								"patchline" : 								{
									"destination" : [ "obj-22", 0 ],
									"order" : 0,
									"source" : [ "obj-1", 0 ]
								}

							}
, 							{
								"patchline" : 								{
									"destination" : [ "obj-27", 0 ],
									"order" : 1,
									"source" : [ "obj-1", 0 ]
								}

							}
, 							{
								"patchline" : 								{
									"destination" : [ "obj-30", 0 ],
									"order" : 3,
									"source" : [ "obj-1", 0 ]
								}

							}
, 							{
								"patchline" : 								{
									"destination" : [ "obj-37", 0 ],
									"order" : 2,
									"source" : [ "obj-1", 0 ]
								}

							}
, 							{
								"patchline" : 								{
									"destination" : [ "obj-22", 1 ],
									"source" : [ "obj-21", 0 ]
								}

							}
, 							{
								"patchline" : 								{
									"destination" : [ "obj-5", 0 ],
									"source" : [ "obj-22", 0 ]
								}

							}
, 							{
								"patchline" : 								{
									"destination" : [ "obj-21", 0 ],
									"source" : [ "obj-23", 0 ]
								}

							}
, 							{
								"patchline" : 								{
									"destination" : [ "obj-26", 0 ],
									"source" : [ "obj-25", 0 ]
								}

							}
, 							{
								"patchline" : 								{
									"destination" : [ "obj-27", 1 ],
									"source" : [ "obj-26", 0 ]
								}

							}
, 							{
								"patchline" : 								{
									"destination" : [ "obj-4", 0 ],
									"source" : [ "obj-27", 0 ]
								}

							}
, 							{
								"patchline" : 								{
									"destination" : [ "obj-29", 0 ],
									"source" : [ "obj-28", 0 ]
								}

							}
, 							{
								"patchline" : 								{
									"destination" : [ "obj-30", 1 ],
									"source" : [ "obj-29", 0 ]
								}

							}
, 							{
								"patchline" : 								{
									"destination" : [ "obj-2", 0 ],
									"source" : [ "obj-30", 0 ]
								}

							}
, 							{
								"patchline" : 								{
									"destination" : [ "obj-34", 0 ],
									"source" : [ "obj-33", 0 ]
								}

							}
, 							{
								"patchline" : 								{
									"destination" : [ "obj-37", 1 ],
									"source" : [ "obj-34", 0 ]
								}

							}
, 							{
								"patchline" : 								{
									"destination" : [ "obj-3", 0 ],
									"source" : [ "obj-37", 0 ]
								}

							}
, 							{
								"patchline" : 								{
									"destination" : [ "obj-23", 0 ],
									"source" : [ "obj-40", 3 ]
								}

							}
, 							{
								"patchline" : 								{
									"destination" : [ "obj-25", 0 ],
									"source" : [ "obj-40", 2 ]
								}

							}
, 							{
								"patchline" : 								{
									"destination" : [ "obj-28", 0 ],
									"source" : [ "obj-40", 0 ]
								}

							}
, 							{
								"patchline" : 								{
									"destination" : [ "obj-33", 0 ],
									"source" : [ "obj-40", 1 ]
								}

							}
, 							{
								"patchline" : 								{
									"destination" : [ "obj-28", 0 ],
									"order" : 1,
									"source" : [ "obj-43", 0 ]
								}

							}
, 							{
								"patchline" : 								{
									"destination" : [ "obj-68", 0 ],
									"order" : 0,
									"source" : [ "obj-43", 0 ]
								}

							}
, 							{
								"patchline" : 								{
									"destination" : [ "obj-43", 0 ],
									"source" : [ "obj-44", 0 ]
								}

							}
, 							{
								"patchline" : 								{
									"destination" : [ "obj-57", 0 ],
									"source" : [ "obj-45", 0 ]
								}

							}
, 							{
								"patchline" : 								{
									"destination" : [ "obj-33", 0 ],
									"order" : 1,
									"source" : [ "obj-57", 0 ]
								}

							}
, 							{
								"patchline" : 								{
									"destination" : [ "obj-68", 1 ],
									"order" : 0,
									"source" : [ "obj-57", 0 ]
								}

							}
, 							{
								"patchline" : 								{
									"destination" : [ "obj-59", 0 ],
									"source" : [ "obj-58", 0 ]
								}

							}
, 							{
								"patchline" : 								{
									"destination" : [ "obj-25", 0 ],
									"order" : 1,
									"source" : [ "obj-59", 0 ]
								}

							}
, 							{
								"patchline" : 								{
									"destination" : [ "obj-68", 2 ],
									"order" : 0,
									"source" : [ "obj-59", 0 ]
								}

							}
, 							{
								"patchline" : 								{
									"destination" : [ "obj-40", 0 ],
									"source" : [ "obj-6", 0 ]
								}

							}
, 							{
								"patchline" : 								{
									"destination" : [ "obj-67", 0 ],
									"source" : [ "obj-63", 0 ]
								}

							}
, 							{
								"patchline" : 								{
									"destination" : [ "obj-23", 0 ],
									"order" : 1,
									"source" : [ "obj-67", 0 ]
								}

							}
, 							{
								"patchline" : 								{
									"destination" : [ "obj-68", 3 ],
									"order" : 0,
									"source" : [ "obj-67", 0 ]
								}

							}
, 							{
								"patchline" : 								{
									"destination" : [ "obj-44", 1 ],
									"order" : 3,
									"source" : [ "obj-7", 0 ]
								}

							}
, 							{
								"patchline" : 								{
									"destination" : [ "obj-45", 1 ],
									"order" : 2,
									"source" : [ "obj-7", 0 ]
								}

							}
, 							{
								"patchline" : 								{
									"destination" : [ "obj-58", 1 ],
									"order" : 1,
									"source" : [ "obj-7", 0 ]
								}

							}
, 							{
								"patchline" : 								{
									"destination" : [ "obj-63", 1 ],
									"order" : 0,
									"source" : [ "obj-7", 0 ]
								}

							}
 ]
					}
,
					"patching_rect" : [ 178.0, 440.0, 91.0, 22.0 ],
					"saved_object_attributes" : 					{
						"description" : "",
						"digest" : "",
						"globalpatchername" : "",
						"tags" : ""
					}
,
					"text" : "p smooth-gains"
				}

			}
, 			{
				"box" : 				{
					"id" : "obj-39",
					"maxclass" : "newobj",
					"numinlets" : 1,
					"numoutlets" : 0,
					"patching_rect" : [ 178.0, 582.0, 293.0, 22.0 ],
					"text" : "mc.send~ #1-sbap-spatialized-sources @chans 8"
				}

			}
, 			{
				"box" : 				{
					"id" : "obj-24",
					"maxclass" : "newobj",
					"numinlets" : 4,
					"numoutlets" : 1,
					"outlettype" : [ "multichannelsignal" ],
					"patching_rect" : [ 178.0, 467.0, 91.0, 22.0 ],
					"text" : "mc.pack~ 4"
				}

			}
, 			{
				"box" : 				{
					"id" : "obj-18",
					"maxclass" : "newobj",
					"numinlets" : 1,
					"numoutlets" : 1,
					"outlettype" : [ "bang" ],
					"patching_rect" : [ 58.0, 24.0, 58.0, 22.0 ],
					"text" : "loadbang"
				}

			}
, 			{
				"box" : 				{
					"id" : "obj-20",
					"maxclass" : "newobj",
					"numinlets" : 1,
					"numoutlets" : 3,
					"outlettype" : [ "int", "int", "int" ],
					"patching_rect" : [ 58.0, 50.0, 58.0, 22.0 ],
					"text" : "thispoly~"
				}

			}
, 			{
				"box" : 				{
					"id" : "obj-70",
					"maxclass" : "number",
					"numinlets" : 1,
					"numoutlets" : 2,
					"outlettype" : [ "", "bang" ],
					"parameter_enable" : 0,
					"patching_rect" : [ 337.0, 303.0, 50.0, 22.0 ]
				}

			}
, 			{
				"box" : 				{
					"id" : "obj-73",
					"maxclass" : "newobj",
					"numinlets" : 1,
					"numoutlets" : 1,
					"outlettype" : [ "bang" ],
					"patching_rect" : [ 268.0, 237.0, 58.0, 22.0 ],
					"text" : "loadbang"
				}

			}
, 			{
				"box" : 				{
					"id" : "obj-98",
					"maxclass" : "message",
					"numinlets" : 2,
					"numoutlets" : 1,
					"outlettype" : [ "" ],
					"patching_rect" : [ 268.0, 261.0, 67.0, 22.0 ],
					"text" : "speakers 4"
				}

			}
, 			{
				"box" : 				{
					"id" : "obj-97",
					"maxclass" : "newobj",
					"numinlets" : 1,
					"numoutlets" : 4,
					"outlettype" : [ "", "", "", "" ],
					"patching_rect" : [ 249.0, 303.0, 50.5, 22.0 ],
					"saved_object_attributes" : 					{
						"filename" : "sbap",
						"parameter_enable" : 0
					}
,
					"text" : "js sbap"
				}

			}
, 			{
				"box" : 				{
					"id" : "obj-6",
					"maxclass" : "newobj",
					"numinlets" : 4,
					"numoutlets" : 4,
					"outlettype" : [ "", "", "", "" ],
					"patching_rect" : [ 291.0, 60.0, 157.0, 22.0 ],
					"text" : "route position smooth algo"
				}

			}
, 			{
				"box" : 				{
					"id" : "obj-3",
					"maxclass" : "newobj",
					"numinlets" : 1,
					"numoutlets" : 1,
					"outlettype" : [ "" ],
					"patching_rect" : [ 291.0, 28.0, 28.0, 22.0 ],
					"saved_object_attributes" : 					{
						"attr_comment" : ""
					}
,
					"text" : "in 1"
				}

			}
 ],
		"lines" : [ 			{
				"patchline" : 				{
					"destination" : [ "obj-5", 0 ],
					"source" : [ "obj-1", 0 ]
				}

			}
, 			{
				"patchline" : 				{
					"destination" : [ "obj-11", 1 ],
					"source" : [ "obj-10", 0 ]
				}

			}
, 			{
				"patchline" : 				{
					"destination" : [ "obj-39", 0 ],
					"source" : [ "obj-11", 0 ]
				}

			}
, 			{
				"patchline" : 				{
					"destination" : [ "obj-9", 1 ],
					"source" : [ "obj-12", 0 ]
				}

			}
, 			{
				"patchline" : 				{
					"destination" : [ "obj-97", 0 ],
					"source" : [ "obj-13", 0 ]
				}

			}
, 			{
				"patchline" : 				{
					"destination" : [ "obj-2", 0 ],
					"source" : [ "obj-14", 0 ]
				}

			}
, 			{
				"patchline" : 				{
					"destination" : [ "obj-10", 1 ],
					"source" : [ "obj-15", 0 ]
				}

			}
, 			{
				"patchline" : 				{
					"destination" : [ "obj-14", 1 ],
					"source" : [ "obj-16", 0 ]
				}

			}
, 			{
				"patchline" : 				{
					"destination" : [ "obj-97", 0 ],
					"source" : [ "obj-162", 0 ]
				}

			}
, 			{
				"patchline" : 				{
					"destination" : [ "obj-19", 0 ],
					"source" : [ "obj-17", 0 ]
				}

			}
, 			{
				"patchline" : 				{
					"destination" : [ "obj-20", 0 ],
					"source" : [ "obj-18", 0 ]
				}

			}
, 			{
				"patchline" : 				{
					"destination" : [ "obj-15", 0 ],
					"source" : [ "obj-19", 0 ]
				}

			}
, 			{
				"patchline" : 				{
					"destination" : [ "obj-12", 0 ],
					"order" : 1,
					"source" : [ "obj-2", 1 ]
				}

			}
, 			{
				"patchline" : 				{
					"destination" : [ "obj-19", 1 ],
					"order" : 0,
					"source" : [ "obj-2", 1 ]
				}

			}
, 			{
				"patchline" : 				{
					"destination" : [ "obj-42", 0 ],
					"source" : [ "obj-2", 0 ]
				}

			}
, 			{
				"patchline" : 				{
					"destination" : [ "obj-14", 0 ],
					"source" : [ "obj-20", 0 ]
				}

			}
, 			{
				"patchline" : 				{
					"destination" : [ "obj-10", 0 ],
					"order" : 0,
					"source" : [ "obj-24", 0 ]
				}

			}
, 			{
				"patchline" : 				{
					"destination" : [ "obj-9", 0 ],
					"order" : 1,
					"source" : [ "obj-24", 0 ]
				}

			}
, 			{
				"patchline" : 				{
					"destination" : [ "obj-6", 0 ],
					"source" : [ "obj-3", 0 ]
				}

			}
, 			{
				"patchline" : 				{
					"destination" : [ "obj-162", 0 ],
					"source" : [ "obj-4", 1 ]
				}

			}
, 			{
				"patchline" : 				{
					"destination" : [ "obj-8", 0 ],
					"source" : [ "obj-4", 0 ]
				}

			}
, 			{
				"patchline" : 				{
					"destination" : [ "obj-24", 3 ],
					"source" : [ "obj-42", 3 ]
				}

			}
, 			{
				"patchline" : 				{
					"destination" : [ "obj-24", 2 ],
					"source" : [ "obj-42", 2 ]
				}

			}
, 			{
				"patchline" : 				{
					"destination" : [ "obj-24", 1 ],
					"source" : [ "obj-42", 1 ]
				}

			}
, 			{
				"patchline" : 				{
					"destination" : [ "obj-24", 0 ],
					"source" : [ "obj-42", 0 ]
				}

			}
, 			{
				"patchline" : 				{
					"destination" : [ "obj-4", 0 ],
					"source" : [ "obj-5", 0 ]
				}

			}
, 			{
				"patchline" : 				{
					"destination" : [ "obj-13", 0 ],
					"source" : [ "obj-6", 2 ]
				}

			}
, 			{
				"patchline" : 				{
					"destination" : [ "obj-5", 1 ],
					"source" : [ "obj-6", 0 ]
				}

			}
, 			{
				"patchline" : 				{
					"destination" : [ "obj-70", 0 ],
					"source" : [ "obj-6", 1 ]
				}

			}
, 			{
				"patchline" : 				{
					"destination" : [ "obj-42", 2 ],
					"source" : [ "obj-70", 0 ]
				}

			}
, 			{
				"patchline" : 				{
					"destination" : [ "obj-98", 0 ],
					"source" : [ "obj-73", 0 ]
				}

			}
, 			{
				"patchline" : 				{
					"destination" : [ "obj-2", 0 ],
					"source" : [ "obj-8", 0 ]
				}

			}
, 			{
				"patchline" : 				{
					"destination" : [ "obj-11", 0 ],
					"source" : [ "obj-9", 0 ]
				}

			}
, 			{
				"patchline" : 				{
					"destination" : [ "obj-42", 1 ],
					"source" : [ "obj-97", 0 ]
				}

			}
, 			{
				"patchline" : 				{
					"destination" : [ "obj-97", 0 ],
					"source" : [ "obj-98", 0 ]
				}

			}
 ]
	}

}
